<mxfile host="app.diagrams.net" agent="Mozilla/5.0 (X11; Linux x86_64; rv:130.0) Gecko/20100101 Firefox/130.0" version="24.7.17">
  <diagram name="Page-1" id="c4acf3e9-155e-7222-9cf6-157b1a14988f">
    <mxGraphModel dx="1195" dy="764" grid="1" gridSize="10" guides="1" tooltips="1" connect="1" arrows="1" fold="1" page="1" pageScale="1" pageWidth="850" pageHeight="1100" background="none" math="0" shadow="0">
      <root>
        <mxCell id="0" />
        <mxCell id="1" parent="0" />
        <mxCell id="Z_GyuDmzpreW9gQNdIOl-5" value="User" style="swimlane;fontStyle=1;align=center;verticalAlign=top;childLayout=stackLayout;horizontal=1;startSize=26;horizontalStack=0;resizeParent=1;resizeParentMax=0;resizeLast=0;collapsible=1;marginBottom=0;whiteSpace=wrap;html=1;" vertex="1" parent="1">
          <mxGeometry x="40" y="80" width="220" height="222" as="geometry" />
        </mxCell>
        <mxCell id="Z_GyuDmzpreW9gQNdIOl-6" value="&lt;div&gt;+id: String&lt;/div&gt;&lt;div&gt;+username: String&lt;/div&gt;&lt;div&gt;+email: String&lt;/div&gt;&lt;div&gt;+userlevel: Level&lt;br&gt;&lt;/div&gt;&lt;div&gt;-approval: Boolean = false&lt;br&gt;&lt;/div&gt;" style="text;strokeColor=none;fillColor=none;align=left;verticalAlign=top;spacingLeft=4;spacingRight=4;overflow=hidden;rotatable=0;points=[[0,0.5],[1,0.5]];portConstraint=eastwest;whiteSpace=wrap;html=1;" vertex="1" parent="Z_GyuDmzpreW9gQNdIOl-5">
          <mxGeometry y="26" width="220" height="78" as="geometry" />
        </mxCell>
        <mxCell id="Z_GyuDmzpreW9gQNdIOl-7" value="" style="line;strokeWidth=1;fillColor=none;align=left;verticalAlign=middle;spacingTop=-1;spacingLeft=3;spacingRight=3;rotatable=0;labelPosition=right;points=[];portConstraint=eastwest;strokeColor=inherit;" vertex="1" parent="Z_GyuDmzpreW9gQNdIOl-5">
          <mxGeometry y="104" width="220" height="8" as="geometry" />
        </mxCell>
        <mxCell id="Z_GyuDmzpreW9gQNdIOl-8" value="&lt;div&gt;+User(username: String, email: String)&lt;/div&gt;&lt;div&gt;+approve_registration(): Boolean&lt;/div&gt;&lt;div&gt;+deny_registration(): Boolean&lt;br&gt;&lt;/div&gt;" style="text;strokeColor=none;fillColor=none;align=left;verticalAlign=top;spacingLeft=4;spacingRight=4;overflow=hidden;rotatable=0;points=[[0,0.5],[1,0.5]];portConstraint=eastwest;whiteSpace=wrap;html=1;" vertex="1" parent="Z_GyuDmzpreW9gQNdIOl-5">
          <mxGeometry y="112" width="220" height="110" as="geometry" />
        </mxCell>
        <mxCell id="Z_GyuDmzpreW9gQNdIOl-9" value="Inventory" style="swimlane;fontStyle=1;align=center;verticalAlign=top;childLayout=stackLayout;horizontal=1;startSize=26;horizontalStack=0;resizeParent=1;resizeParentMax=0;resizeLast=0;collapsible=1;marginBottom=0;whiteSpace=wrap;html=1;" vertex="1" parent="1">
          <mxGeometry x="500" y="28" width="260" height="222" as="geometry" />
        </mxCell>
        <mxCell id="Z_GyuDmzpreW9gQNdIOl-10" value="+itemcount: Integer = 0" style="text;strokeColor=none;fillColor=none;align=left;verticalAlign=top;spacingLeft=4;spacingRight=4;overflow=hidden;rotatable=0;points=[[0,0.5],[1,0.5]];portConstraint=eastwest;whiteSpace=wrap;html=1;" vertex="1" parent="Z_GyuDmzpreW9gQNdIOl-9">
          <mxGeometry y="26" width="260" height="30" as="geometry" />
        </mxCell>
        <mxCell id="Z_GyuDmzpreW9gQNdIOl-11" value="" style="line;strokeWidth=1;fillColor=none;align=left;verticalAlign=middle;spacingTop=-1;spacingLeft=3;spacingRight=3;rotatable=0;labelPosition=right;points=[];portConstraint=eastwest;strokeColor=inherit;" vertex="1" parent="Z_GyuDmzpreW9gQNdIOl-9">
          <mxGeometry y="56" width="260" height="8" as="geometry" />
        </mxCell>
        <mxCell id="Z_GyuDmzpreW9gQNdIOl-12" value="&lt;div&gt;+Inventory()&lt;/div&gt;&lt;div&gt;+search(name: String): Item[0..*]&lt;/div&gt;&lt;div&gt;+search_by_seller(sellerid: String): Item[0..*]&lt;/div&gt;&lt;div&gt;+get_item(itemid: String): Item[1..1]&lt;/div&gt;&lt;div&gt;+add_item(itemid: String): Boolean&lt;/div&gt;&lt;div&gt;+remove_item(itemid: String): Boolean&lt;/div&gt;&lt;div&gt;+get_item_count(itemid: String): Integer&lt;br&gt;&lt;/div&gt;" style="text;strokeColor=none;fillColor=none;align=left;verticalAlign=top;spacingLeft=4;spacingRight=4;overflow=hidden;rotatable=0;points=[[0,0.5],[1,0.5]];portConstraint=eastwest;whiteSpace=wrap;html=1;" vertex="1" parent="Z_GyuDmzpreW9gQNdIOl-9">
          <mxGeometry y="64" width="260" height="158" as="geometry" />
        </mxCell>
        <mxCell id="Z_GyuDmzpreW9gQNdIOl-13" value="Item" style="swimlane;fontStyle=1;align=center;verticalAlign=top;childLayout=stackLayout;horizontal=1;startSize=26;horizontalStack=0;resizeParent=1;resizeParentMax=0;resizeLast=0;collapsible=1;marginBottom=0;whiteSpace=wrap;html=1;" vertex="1" parent="1">
          <mxGeometry x="520" y="360" width="220" height="222" as="geometry" />
        </mxCell>
        <mxCell id="Z_GyuDmzpreW9gQNdIOl-14" value="&lt;div&gt;+id: String&lt;br&gt;&lt;/div&gt;&lt;div&gt;+name: String&lt;/div&gt;&lt;div&gt;+description: String&lt;/div&gt;&lt;div&gt;+quantity: Integer = 0&lt;br&gt;&lt;/div&gt;&lt;div&gt;+seller: String&lt;/div&gt;" style="text;strokeColor=none;fillColor=none;align=left;verticalAlign=top;spacingLeft=4;spacingRight=4;overflow=hidden;rotatable=0;points=[[0,0.5],[1,0.5]];portConstraint=eastwest;whiteSpace=wrap;html=1;" vertex="1" parent="Z_GyuDmzpreW9gQNdIOl-13">
          <mxGeometry y="26" width="220" height="78" as="geometry" />
        </mxCell>
        <mxCell id="Z_GyuDmzpreW9gQNdIOl-15" value="" style="line;strokeWidth=1;fillColor=none;align=left;verticalAlign=middle;spacingTop=-1;spacingLeft=3;spacingRight=3;rotatable=0;labelPosition=right;points=[];portConstraint=eastwest;strokeColor=inherit;" vertex="1" parent="Z_GyuDmzpreW9gQNdIOl-13">
          <mxGeometry y="104" width="220" height="8" as="geometry" />
        </mxCell>
        <mxCell id="Z_GyuDmzpreW9gQNdIOl-16" value="&lt;div&gt;+Item(name: String, seller: String)&lt;/div&gt;&lt;div&gt;+approve(): Boolean&lt;/div&gt;&lt;div&gt;+deny(): Boolean&lt;br&gt;&lt;/div&gt;&lt;div&gt;&lt;br&gt;&lt;/div&gt;" style="text;strokeColor=none;fillColor=none;align=left;verticalAlign=top;spacingLeft=4;spacingRight=4;overflow=hidden;rotatable=0;points=[[0,0.5],[1,0.5]];portConstraint=eastwest;whiteSpace=wrap;html=1;" vertex="1" parent="Z_GyuDmzpreW9gQNdIOl-13">
          <mxGeometry y="112" width="220" height="110" as="geometry" />
        </mxCell>
        <mxCell id="Z_GyuDmzpreW9gQNdIOl-17" value="Order" style="swimlane;fontStyle=1;align=center;verticalAlign=top;childLayout=stackLayout;horizontal=1;startSize=26;horizontalStack=0;resizeParent=1;resizeParentMax=0;resizeLast=0;collapsible=1;marginBottom=0;whiteSpace=wrap;html=1;" vertex="1" parent="1">
          <mxGeometry x="50" y="360" width="220" height="222" as="geometry" />
        </mxCell>
        <mxCell id="Z_GyuDmzpreW9gQNdIOl-18" value="&lt;div&gt;+user: String&lt;/div&gt;&lt;div&gt;+id: String&lt;br&gt;&lt;/div&gt;&lt;div&gt;+items: Item[0..*]&lt;/div&gt;&lt;div&gt;+orderstatus: OrderStatus&lt;br&gt;&lt;/div&gt;" style="text;strokeColor=none;fillColor=none;align=left;verticalAlign=top;spacingLeft=4;spacingRight=4;overflow=hidden;rotatable=0;points=[[0,0.5],[1,0.5]];portConstraint=eastwest;whiteSpace=wrap;html=1;" vertex="1" parent="Z_GyuDmzpreW9gQNdIOl-17">
          <mxGeometry y="26" width="220" height="78" as="geometry" />
        </mxCell>
        <mxCell id="Z_GyuDmzpreW9gQNdIOl-19" value="" style="line;strokeWidth=1;fillColor=none;align=left;verticalAlign=middle;spacingTop=-1;spacingLeft=3;spacingRight=3;rotatable=0;labelPosition=right;points=[];portConstraint=eastwest;strokeColor=inherit;" vertex="1" parent="Z_GyuDmzpreW9gQNdIOl-17">
          <mxGeometry y="104" width="220" height="8" as="geometry" />
        </mxCell>
        <mxCell id="Z_GyuDmzpreW9gQNdIOl-20" value="&lt;div&gt;+Order(user: String, items: Item[0..*])&lt;/div&gt;&lt;div&gt;+add_item(item: Item): Boolean&lt;br&gt;&lt;/div&gt;" style="text;strokeColor=none;fillColor=none;align=left;verticalAlign=top;spacingLeft=4;spacingRight=4;overflow=hidden;rotatable=0;points=[[0,0.5],[1,0.5]];portConstraint=eastwest;whiteSpace=wrap;html=1;" vertex="1" parent="Z_GyuDmzpreW9gQNdIOl-17">
          <mxGeometry y="112" width="220" height="110" as="geometry" />
        </mxCell>
        <mxCell id="Z_GyuDmzpreW9gQNdIOl-21" value="&lt;i&gt;&lt;span style=&quot;font-weight: normal;&quot;&gt;&amp;lt;&amp;lt; enumeration &amp;gt;&amp;gt;&lt;/span&gt;&lt;/i&gt;&lt;br&gt;&lt;div&gt;Level&lt;/div&gt;" style="swimlane;fontStyle=1;align=center;verticalAlign=top;childLayout=stackLayout;horizontal=1;startSize=40;horizontalStack=0;resizeParent=1;resizeParentMax=0;resizeLast=0;collapsible=1;marginBottom=0;whiteSpace=wrap;html=1;" vertex="1" parent="1">
          <mxGeometry x="320" y="80" width="130" height="118" as="geometry" />
        </mxCell>
        <mxCell id="Z_GyuDmzpreW9gQNdIOl-22" value="&lt;div&gt;Admin&lt;/div&gt;&lt;div&gt;Seller&lt;/div&gt;&lt;div&gt;Buyer&lt;br&gt;&lt;/div&gt;" style="text;strokeColor=none;fillColor=none;align=left;verticalAlign=top;spacingLeft=4;spacingRight=4;overflow=hidden;rotatable=0;points=[[0,0.5],[1,0.5]];portConstraint=eastwest;whiteSpace=wrap;html=1;" vertex="1" parent="Z_GyuDmzpreW9gQNdIOl-21">
          <mxGeometry y="40" width="130" height="78" as="geometry" />
        </mxCell>
        <mxCell id="Z_GyuDmzpreW9gQNdIOl-28" value="PaymentMethod" style="swimlane;fontStyle=1;align=center;verticalAlign=top;childLayout=stackLayout;horizontal=1;startSize=26;horizontalStack=0;resizeParent=1;resizeParentMax=0;resizeLast=0;collapsible=1;marginBottom=0;whiteSpace=wrap;html=1;" vertex="1" parent="1">
          <mxGeometry x="280" y="490" width="230" height="248" as="geometry" />
        </mxCell>
        <mxCell id="Z_GyuDmzpreW9gQNdIOl-29" value="&lt;div&gt;+id: String&lt;/div&gt;&lt;div&gt;+user: String&lt;/div&gt;&lt;div&gt;+name: String&lt;br&gt;&lt;/div&gt;&lt;div&gt;+cardno: Integer&lt;/div&gt;&lt;div&gt;+cardexp: Integer&lt;/div&gt;&lt;div&gt;+cardcvv: Integer&lt;br&gt;&lt;/div&gt;" style="text;strokeColor=none;fillColor=none;align=left;verticalAlign=top;spacingLeft=4;spacingRight=4;overflow=hidden;rotatable=0;points=[[0,0.5],[1,0.5]];portConstraint=eastwest;whiteSpace=wrap;html=1;" vertex="1" parent="Z_GyuDmzpreW9gQNdIOl-28">
          <mxGeometry y="26" width="230" height="104" as="geometry" />
        </mxCell>
        <mxCell id="Z_GyuDmzpreW9gQNdIOl-30" value="" style="line;strokeWidth=1;fillColor=none;align=left;verticalAlign=middle;spacingTop=-1;spacingLeft=3;spacingRight=3;rotatable=0;labelPosition=right;points=[];portConstraint=eastwest;strokeColor=inherit;" vertex="1" parent="Z_GyuDmzpreW9gQNdIOl-28">
          <mxGeometry y="130" width="230" height="8" as="geometry" />
        </mxCell>
        <mxCell id="Z_GyuDmzpreW9gQNdIOl-31" value="&lt;div&gt;+PaymentMethod(user: String, name: String, cardno: Integer, cardexp: Integer, cardcvv: Integer)&lt;/div&gt;&lt;div&gt;+charge(orderid: String): Boolean&lt;br&gt;&lt;/div&gt;" style="text;strokeColor=none;fillColor=none;align=left;verticalAlign=top;spacingLeft=4;spacingRight=4;overflow=hidden;rotatable=0;points=[[0,0.5],[1,0.5]];portConstraint=eastwest;whiteSpace=wrap;html=1;" vertex="1" parent="Z_GyuDmzpreW9gQNdIOl-28">
          <mxGeometry y="138" width="230" height="110" as="geometry" />
        </mxCell>
        <mxCell id="Z_GyuDmzpreW9gQNdIOl-37" value="1" style="endArrow=open;html=1;endSize=12;startArrow=diamondThin;startSize=14;startFill=1;edgeStyle=orthogonalEdgeStyle;align=left;verticalAlign=bottom;rounded=0;entryX=0.477;entryY=0.005;entryDx=0;entryDy=0;entryPerimeter=0;exitX=0.606;exitY=1.004;exitDx=0;exitDy=0;exitPerimeter=0;" edge="1" parent="1" source="Z_GyuDmzpreW9gQNdIOl-12" target="Z_GyuDmzpreW9gQNdIOl-13">
          <mxGeometry x="-1" y="3" relative="1" as="geometry">
            <mxPoint x="625" y="302" as="sourcePoint" />
            <mxPoint x="785" y="302" as="targetPoint" />
          </mxGeometry>
        </mxCell>
        <mxCell id="Z_GyuDmzpreW9gQNdIOl-38" value="0..*" style="edgeLabel;html=1;align=center;verticalAlign=middle;resizable=0;points=[];" vertex="1" connectable="0" parent="Z_GyuDmzpreW9gQNdIOl-37">
          <mxGeometry x="0.6336" y="10" relative="1" as="geometry">
            <mxPoint y="-11" as="offset" />
          </mxGeometry>
        </mxCell>
        <mxCell id="Z_GyuDmzpreW9gQNdIOl-39" value="&lt;i&gt;&lt;span style=&quot;font-weight: normal;&quot;&gt;&amp;lt;&amp;lt; enumeration &amp;gt;&amp;gt;&lt;/span&gt;&lt;/i&gt;&lt;br&gt;&lt;div&gt;OrderStatus&lt;/div&gt;" style="swimlane;fontStyle=1;align=center;verticalAlign=top;childLayout=stackLayout;horizontal=1;startSize=40;horizontalStack=0;resizeParent=1;resizeParentMax=0;resizeLast=0;collapsible=1;marginBottom=0;whiteSpace=wrap;html=1;" vertex="1" parent="1">
          <mxGeometry x="320" y="350" width="130" height="118" as="geometry" />
        </mxCell>
        <mxCell id="Z_GyuDmzpreW9gQNdIOl-40" value="&lt;div&gt;Unfulfilled&lt;/div&gt;&lt;div&gt;Fulfilled&lt;/div&gt;&lt;div&gt;Shipped&lt;/div&gt;&lt;div&gt;Arrived&lt;br&gt;&lt;/div&gt;" style="text;strokeColor=none;fillColor=none;align=left;verticalAlign=top;spacingLeft=4;spacingRight=4;overflow=hidden;rotatable=0;points=[[0,0.5],[1,0.5]];portConstraint=eastwest;whiteSpace=wrap;html=1;" vertex="1" parent="Z_GyuDmzpreW9gQNdIOl-39">
          <mxGeometry y="40" width="130" height="78" as="geometry" />
        </mxCell>
        <mxCell id="Z_GyuDmzpreW9gQNdIOl-41" value="" style="endArrow=open;startArrow=circlePlus;endFill=0;startFill=0;endSize=8;html=1;rounded=0;entryX=0;entryY=0.5;entryDx=0;entryDy=0;" edge="1" parent="1" target="Z_GyuDmzpreW9gQNdIOl-40">
          <mxGeometry width="160" relative="1" as="geometry">
            <mxPoint x="260" y="430.58" as="sourcePoint" />
            <mxPoint x="420" y="430.58" as="targetPoint" />
          </mxGeometry>
        </mxCell>
        <mxCell id="Z_GyuDmzpreW9gQNdIOl-42" value="" style="endArrow=open;startArrow=circlePlus;endFill=0;startFill=0;endSize=8;html=1;rounded=0;entryX=-0.006;entryY=0.331;entryDx=0;entryDy=0;entryPerimeter=0;" edge="1" parent="1" target="Z_GyuDmzpreW9gQNdIOl-22">
          <mxGeometry width="160" relative="1" as="geometry">
            <mxPoint x="260" y="181.57999999999998" as="sourcePoint" />
            <mxPoint x="320" y="110" as="targetPoint" />
          </mxGeometry>
        </mxCell>
        <mxCell id="Z_GyuDmzpreW9gQNdIOl-43" value="1" style="endArrow=open;html=1;endSize=12;startArrow=diamondThin;startSize=14;startFill=1;edgeStyle=orthogonalEdgeStyle;align=left;verticalAlign=bottom;rounded=0;exitX=0.504;exitY=0.998;exitDx=0;exitDy=0;exitPerimeter=0;" edge="1" parent="1" source="Z_GyuDmzpreW9gQNdIOl-8">
          <mxGeometry x="-1" y="3" relative="1" as="geometry">
            <mxPoint x="149.58" y="310" as="sourcePoint" />
            <mxPoint x="149.58" y="360" as="targetPoint" />
          </mxGeometry>
        </mxCell>
        <mxCell id="Z_GyuDmzpreW9gQNdIOl-44" value="0..*" style="edgeLabel;html=1;align=center;verticalAlign=middle;resizable=0;points=[];" vertex="1" connectable="0" parent="Z_GyuDmzpreW9gQNdIOl-43">
          <mxGeometry x="0.6336" y="10" relative="1" as="geometry">
            <mxPoint y="-11" as="offset" />
          </mxGeometry>
        </mxCell>
        <mxCell id="Z_GyuDmzpreW9gQNdIOl-48" value="1" style="endArrow=open;html=1;endSize=12;startArrow=diamondThin;startSize=14;startFill=1;edgeStyle=orthogonalEdgeStyle;align=left;verticalAlign=bottom;rounded=0;exitX=1.004;exitY=0.983;exitDx=0;exitDy=0;exitPerimeter=0;" edge="1" parent="1" source="Z_GyuDmzpreW9gQNdIOl-8">
          <mxGeometry x="-1" y="3" relative="1" as="geometry">
            <mxPoint x="260" y="255" as="sourcePoint" />
            <mxPoint x="461" y="490" as="targetPoint" />
          </mxGeometry>
        </mxCell>
        <mxCell id="Z_GyuDmzpreW9gQNdIOl-49" value="0..*" style="edgeLabel;html=1;align=center;verticalAlign=middle;resizable=0;points=[];" vertex="1" connectable="0" parent="Z_GyuDmzpreW9gQNdIOl-48">
          <mxGeometry x="0.6336" y="10" relative="1" as="geometry">
            <mxPoint y="-11" as="offset" />
          </mxGeometry>
        </mxCell>
        <mxCell id="Z_GyuDmzpreW9gQNdIOl-51" value="1" style="endArrow=open;html=1;endSize=12;startArrow=diamondThin;startSize=14;startFill=1;edgeStyle=orthogonalEdgeStyle;align=left;verticalAlign=bottom;rounded=0;entryX=0.034;entryY=-0.014;entryDx=0;entryDy=0;entryPerimeter=0;exitX=1;exitY=0.709;exitDx=0;exitDy=0;exitPerimeter=0;" edge="1" parent="1" source="Z_GyuDmzpreW9gQNdIOl-8" target="Z_GyuDmzpreW9gQNdIOl-13">
          <mxGeometry x="-1" y="3" relative="1" as="geometry">
            <mxPoint x="260" y="279" as="sourcePoint" />
            <mxPoint x="464" y="476" as="targetPoint" />
          </mxGeometry>
        </mxCell>
        <mxCell id="Z_GyuDmzpreW9gQNdIOl-52" value="0..*" style="edgeLabel;html=1;align=center;verticalAlign=middle;resizable=0;points=[];" vertex="1" connectable="0" parent="Z_GyuDmzpreW9gQNdIOl-51">
          <mxGeometry x="0.6336" y="10" relative="1" as="geometry">
            <mxPoint y="-11" as="offset" />
          </mxGeometry>
        </mxCell>
      </root>
    </mxGraphModel>
  </diagram>
</mxfile>
